_________________________  Visit us at _________________________
  
http://p2pdl.com  ____________________________  http://p2pdl.com


Parker 2013 BRRip 480p x264 AAC - VYTO


Genre: Action | Crime | Thriller
Plot: A thief with a unique code of professional ethics is double-crossed by his crew and left for
dead. Assuming a new disguise and forming an unlikely alliance with a woman on the inside, he looks
to hijack the score of the crew's latest heist.
Director: Taylor Hackford
Stars: Jason Statham, Jennifer Lopez, Michael Chiklis.
Rated: R for strong violence, language throughout and brief sexual content/nudity.


Info: 
http://www.imdb.com/title/tt1904996/

Trailer:


Format                         : MPEG-4
File size                      : 377 MiB
Duration                       : 1h 58mn
Overall bit rate mode          : Variable

Video
Format                         : AVC
Bit rate                       : 401 Kbps
Width                          : 720 pixels
Height                         : 304 pixels
Display aspect ratio           : 2.35:1
Frame rate mode                : Constant
Frame rate                     : 23.976 fps
Stream size                    : 340 MiB (90%)
Writing library                : x264 core 130

Audio
Format                         : AAC
Bit rate                       : 40.0 Kbps
Channel(s)                     : 2 channels
Channel positions              : Front: L R
Sampling rate                  : 44.1 KHz
Stream size                    : 34.0 MiB (9%)
Language                       : English

Subtitle                       : Yes (English)
Source                         : 720p.BluRay.x264-iNFAMOUS(Thanks)

Screens:
 
http://www.ultraimg.com/images/fT3I1.png 
http://www.ultraimg.com/images/Cjpsl.png 
http://www.ultraimg.com/images/Uvjbe.png 
http://www.ultraimg.com/images/eGR0O.png 
http://www.ultraimg.com/images/hyvE.png 
http://www.ultraimg.com/images/HWKyC.png


----------------------------------------------------------------------------------------------------


Encoded using revolutionary 10bit encoding, which enables us to provide you more crispier 
and sharper images at small sizes, just make sure you follow our instructions without a fault.
Recommend to you to use latest version of VLC player. Install K-Lite Codec Pack or shark007 codecs
in case of any kind of problem in playback (For non-VLC Media Player users). Alternatively, install
Core AVC codecs, the fastest decoder that there is coupled with Community Center Codec Pack and play
on Windows Media Player Classic. Check sample to be sure.
Enjoy!

Encoder Notes:Looking For Early Access To Anything You Can Provide DVDScr, R5, DVDR, BluRay, Direct
Audio, Music Releases and Seedboxes. We require dedicated servers, so as to do more 
and fast releases of movies.
If You Got anything to offer please contact us at "prg@hush.com".

Face book Fan Page:   
http://www.fb.me/p2pdl